# xmcd
# 
# Track frame offsets:
#     150
#     16948
#     34384
#     56782
#     72600
#     85848
#     107852
#     122552
#     140542
#     157563
#     174728
#     190746
#     205748
#     226336
#     244447
#     267724
#     288083
#     306716
# 
# Disc length: 4337
# 
# Revision: 2
# Processed by: cddbd v1.5.2PL0 Copyright (c) Steve Scherf et al.
# Submitted via: fre:ac v1.0.31
# 
DISCID=0d10ef12
DTITLE=The Jayhawks - Tomorrow The Green Grass Legacy Edition Disc 2
DYEAR=2011
DGENRE=Rock/Pop
TTITLE0=Pray for Me
TTITLE1=Won't Be Coming Home
TTITLE2=No Place
TTITLE3=Precious Time
TTITLE4=Poor Michael's Boat
TTITLE5=Ranch Home in Phoenix
TTITLE6=Cotton Dress
TTITLE7=She Picks the Violets
TTITLE8=Bloody Hands
TTITLE9=Up Above the River
TTITLE10=Over My Shoulder
TTITLE11=Blue From Now On [Take 2]
TTITLE12=Hold Me Close
TTITLE13=Turn Your Pretty Name Around
TTITLE14=You and I (Ba-Ba-Ba)
TTITLE15=Red's Song
TTITLE16=Nothing Left to Borrow
TTITLE17=White Shell Road
EXTD=
EXTT0=
EXTT1=
EXTT2=
EXTT3=
EXTT4=
EXTT5=
EXTT6=
EXTT7=
EXTT8=
EXTT9=
EXTT10=
EXTT11=
EXTT12=
EXTT13=
EXTT14=
EXTT15=
EXTT16=
EXTT17=
PLAYORDER=
